<?xml version="1.0" encoding="UTF-8"?>
<!DOCTYPE svg PUBLIC "-//W3C//DTD SVG 1.1//EN" "http://www.w3.org/Graphics/SVG/1.1/DTD/svg11.dtd">
<svg xmlns="http://www.w3.org/2000/svg" version="1.1" width="186px" height="191px" style="shape-rendering:geometricPrecision; text-rendering:geometricPrecision; image-rendering:optimizeQuality; fill-rule:evenodd; clip-rule:evenodd" xmlns:xlink="http://www.w3.org/1999/xlink">
<g><path style="opacity:1" fill="#66b9f0" d="M 163.5,26.5 C 160.104,25.8122 157.438,24.1455 155.5,21.5C 153.664,20.1889 151.664,19.0222 149.5,18C 145.642,17.9209 141.976,17.2542 138.5,16C 107.833,15.3333 77.1667,15.3333 46.5,16C 45.6721,16.9147 44.6721,17.5814 43.5,18C 40.3054,18.1805 37.3054,18.6805 34.5,19.5C 36.2401,21.5558 38.5735,22.8891 41.5,23.5C 38.5541,24.6548 35.5541,24.8214 32.5,24C 33.6537,23.0862 33.487,22.2529 32,21.5C 28.5711,21.8095 26.0711,23.4762 24.5,26.5C 22.0532,26.615 20.0532,27.615 18.5,29.5C 20.9325,25.2319 24.2658,21.7319 28.5,19C 33.9307,16.523 39.5974,14.8563 45.5,14C 76.5,13.3333 107.5,13.3333 138.5,14C 144.495,14.5817 150.162,16.2484 155.5,19C 158.713,21.05 161.379,23.55 163.5,26.5 Z"/></g>
<g><path style="opacity:1" fill="#38b1fe" d="M 155.5,21.5 C 155.189,22.4778 154.522,23.1445 153.5,23.5C 151.143,22.1287 148.81,20.7954 146.5,19.5C 144.803,19.8988 143.137,20.3988 141.5,21C 143.405,21.8261 143.739,22.9928 142.5,24.5C 135.963,23.2563 129.463,21.9229 123,20.5C 120.535,21.4219 118.201,21.4219 116,20.5C 114.266,21.2489 112.433,21.7489 110.5,22C 116.82,22.4354 116.987,23.2687 111,24.5C 110.5,24 110,23.5 109.5,23C 99.1667,22.6667 88.8333,22.3333 78.5,22C 77.5838,21.6258 76.7504,21.1258 76,20.5C 70.0107,20.9755 63.0107,21.3089 55,21.5C 48.0538,20.0222 41.2205,19.3556 34.5,19.5C 37.3054,18.6805 40.3054,18.1805 43.5,18C 44.6721,17.5814 45.6721,16.9147 46.5,16C 77.1667,15.3333 107.833,15.3333 138.5,16C 141.976,17.2542 145.642,17.9209 149.5,18C 151.664,19.0222 153.664,20.1889 155.5,21.5 Z"/></g>
<g><path style="opacity:1" fill="#3cabfc" d="M 34.5,19.5 C 41.2205,19.3556 48.0538,20.0222 55,21.5C 63.0107,21.3089 70.0107,20.9755 76,20.5C 76.7504,21.1258 77.5838,21.6258 78.5,22C 88.8333,22.3333 99.1667,22.6667 109.5,23C 110,23.5 110.5,24 111,24.5C 116.987,23.2687 116.82,22.4354 110.5,22C 112.433,21.7489 114.266,21.2489 116,20.5C 118.201,21.4219 120.535,21.4219 123,20.5C 129.463,21.9229 135.963,23.2563 142.5,24.5C 143.739,22.9928 143.405,21.8261 141.5,21C 143.137,20.3988 144.803,19.8988 146.5,19.5C 148.81,20.7954 151.143,22.1287 153.5,23.5C 154.522,23.1445 155.189,22.4778 155.5,21.5C 157.438,24.1455 160.104,25.8122 163.5,26.5C 166.277,28.9505 168.277,31.9505 169.5,35.5C 168.072,33.5556 166.239,31.8889 164,30.5C 163.517,29.552 163.351,28.552 163.5,27.5C 161.799,27.0338 160.299,27.0338 159,27.5C 157.915,25.3426 156.749,25.1759 155.5,27C 113.929,27.8298 72.429,27.6631 31,26.5C 28.9826,30.1067 26.8159,30.1067 24.5,26.5C 26.0711,23.4762 28.5711,21.8095 32,21.5C 33.487,22.2529 33.6537,23.0862 32.5,24C 35.5541,24.8214 38.5541,24.6548 41.5,23.5C 38.5735,22.8891 36.2401,21.5558 34.5,19.5 Z"/></g>
<g><path style="opacity:1" fill="#4ea8fb" d="M 169.5,35.5 C 171.872,41.9057 173.038,48.5724 173,55.5C 173.83,81.3366 173.663,107.003 172.5,132.5C 172.5,121.5 172.5,110.5 172.5,99.5C 172.829,85.3234 172.496,71.3234 171.5,57.5C 171.5,55.1667 171.5,52.8333 171.5,50.5C 171.42,46.8351 170.42,43.5017 168.5,40.5C 168.502,38.1691 167.669,36.1691 166,34.5C 162.978,35.2371 159.978,34.9037 157,33.5C 135.905,34.164 114.738,34.4973 93.5,34.5C 71.889,34.4837 50.389,33.8171 29,32.5C 27.7498,34.7058 25.9165,36.0391 23.5,36.5C 23.5772,33.9876 22.5772,31.9876 20.5,30.5C 18.0307,33.4483 15.6974,36.4483 13.5,39.5C 14.1322,35.5686 15.7989,32.2353 18.5,29.5C 20.0532,27.615 22.0532,26.615 24.5,26.5C 26.8159,30.1067 28.9826,30.1067 31,26.5C 72.429,27.6631 113.929,27.8298 155.5,27C 156.749,25.1759 157.915,25.3426 159,27.5C 160.299,27.0338 161.799,27.0338 163.5,27.5C 163.351,28.552 163.517,29.552 164,30.5C 166.239,31.8889 168.072,33.5556 169.5,35.5 Z"/></g>
<g><path style="opacity:1" fill="#4b9ffb" d="M 168.5,40.5 C 167.504,40.4142 166.671,40.7476 166,41.5C 165.517,40.552 165.351,39.552 165.5,38.5C 162.351,38.2114 159.351,38.7114 156.5,40C 114.5,40.3333 72.5,40.6667 30.5,41C 29.5838,41.3742 28.7504,41.8742 28,42.5C 27.7811,41.062 27.2811,39.7287 26.5,38.5C 24.6293,39.767 22.7959,39.767 21,38.5C 19.1759,39.7487 19.3426,40.9153 21.5,42C 19.3313,42.4294 17.3313,41.9294 15.5,40.5C 14.5258,42.7427 14.1924,45.076 14.5,47.5C 14.1667,50.1667 13.8333,52.8333 13.5,55.5C 12.5104,61.31 12.1771,67.31 12.5,73.5C 12.5,79.1667 12.5,84.8333 12.5,90.5C 12.5,95.8333 12.5,101.167 12.5,106.5C 12.5,118.167 12.5,129.833 12.5,141.5C 11.336,110.336 11.1693,79.0027 12,47.5C 12.1829,44.6353 12.6829,41.9686 13.5,39.5C 15.6974,36.4483 18.0307,33.4483 20.5,30.5C 22.5772,31.9876 23.5772,33.9876 23.5,36.5C 25.9165,36.0391 27.7498,34.7058 29,32.5C 50.389,33.8171 71.889,34.4837 93.5,34.5C 114.738,34.4973 135.905,34.164 157,33.5C 159.978,34.9037 162.978,35.2371 166,34.5C 167.669,36.1691 168.502,38.1691 168.5,40.5 Z"/></g>
<g><path style="opacity:1" fill="#3f98fb" d="M 168.5,40.5 C 170.42,43.5017 171.42,46.8351 171.5,50.5C 170.849,49.9094 170.182,49.2427 169.5,48.5C 168.914,48.7093 168.414,49.0426 168,49.5C 166.988,47.1358 165.655,45.8024 164,45.5C 163.261,47.2205 162.427,48.8872 161.5,50.5C 160.5,50.1667 159.833,49.5 159.5,48.5C 111.171,47.5001 62.8379,47.1667 14.5,47.5C 14.1924,45.076 14.5258,42.7427 15.5,40.5C 17.3313,41.9294 19.3313,42.4294 21.5,42C 19.3426,40.9153 19.1759,39.7487 21,38.5C 22.7959,39.767 24.6293,39.767 26.5,38.5C 27.2811,39.7287 27.7811,41.062 28,42.5C 28.7504,41.8742 29.5838,41.3742 30.5,41C 72.5,40.6667 114.5,40.3333 156.5,40C 159.351,38.7114 162.351,38.2114 165.5,38.5C 165.351,39.552 165.517,40.552 166,41.5C 166.671,40.7476 167.504,40.4142 168.5,40.5 Z"/></g>
<g><path style="opacity:1" fill="#4092fa" d="M 171.5,50.5 C 171.5,52.8333 171.5,55.1667 171.5,57.5C 171.663,59.8568 171.497,62.1902 171,64.5C 170.667,60.8333 170.333,57.1667 170,53.5C 166.911,60.4592 165.411,60.1259 165.5,52.5C 164.5,52.5 163.5,52.5 162.5,52.5C 162.737,53.791 162.404,54.791 161.5,55.5C 160.571,54.0639 159.405,52.7305 158,51.5C 110.239,52.4972 62.4053,52.8305 14.5,52.5C 14.5,53.8333 14.5,55.1667 14.5,56.5C 13.8897,58.8503 13.5563,58.517 13.5,55.5C 13.8333,52.8333 14.1667,50.1667 14.5,47.5C 62.8379,47.1667 111.171,47.5001 159.5,48.5C 159.833,49.5 160.5,50.1667 161.5,50.5C 162.427,48.8872 163.261,47.2205 164,45.5C 165.655,45.8024 166.988,47.1358 168,49.5C 168.414,49.0426 168.914,48.7093 169.5,48.5C 170.182,49.2427 170.849,49.9094 171.5,50.5 Z"/></g>
<g><path style="opacity:1" fill="#418efa" d="M 161.5,55.5 C 161.631,56.2389 161.464,56.9056 161,57.5C 160,56.1667 159,54.8333 158,53.5C 157.517,54.448 157.351,55.448 157.5,56.5C 109.833,56.5 62.1667,56.5 14.5,56.5C 14.5,55.1667 14.5,53.8333 14.5,52.5C 62.4053,52.8305 110.239,52.4972 158,51.5C 159.405,52.7305 160.571,54.0639 161.5,55.5 Z"/></g>
<g><path style="opacity:1" fill="#4486f4" d="M 171.5,57.5 C 172.496,71.3234 172.829,85.3234 172.5,99.5C 171.833,93.5 171.167,87.5 170.5,81.5C 170.5,78.8333 170.5,76.1667 170.5,73.5C 169.5,73.5 168.5,73.5 167.5,73.5C 167.66,71.8008 167.494,70.1341 167,68.5C 165.328,71.1748 163.661,73.8414 162,76.5C 161.242,74.2305 161.409,72.0639 162.5,70C 161.914,67.7202 161.08,65.5535 160,63.5C 159.692,64.3081 159.192,64.9747 158.5,65.5C 157.081,63.6641 155.914,61.6641 155,59.5C 153.054,61.9944 150.721,62.6611 148,61.5C 147.199,67.4096 148.699,68.4096 152.5,64.5C 154.111,65.3202 154.778,66.6536 154.5,68.5C 152.302,68.1201 150.635,68.7868 149.5,70.5C 148.833,69.8333 148.167,69.1667 147.5,68.5C 147.167,68.5 146.833,68.5 146.5,68.5C 145.48,66.648 143.98,65.3147 142,64.5C 139.35,65.6726 136.85,67.0059 134.5,68.5C 134.179,66.9519 133.179,66.2852 131.5,66.5C 131.719,67.675 131.386,68.675 130.5,69.5C 129.28,68.2889 128.113,68.2889 127,69.5C 126.667,68.8333 126.333,68.1667 126,67.5C 125.51,68.7932 125.343,70.1266 125.5,71.5C 121.948,71.5791 119.115,70.2457 117,67.5C 115.477,69.5692 114.643,71.9026 114.5,74.5C 112.087,70.6028 108.754,67.6028 104.5,65.5C 103.833,65.5 103.5,65.1667 103.5,64.5C 100.423,63.144 97.0899,62.3106 93.5,62C 76.9989,62.133 60.6656,61.2997 44.5,59.5C 42.9291,60.3094 41.2624,60.6427 39.5,60.5C 38.9924,58.7673 38.159,58.434 37,59.5C 36.2207,63.3065 34.5541,66.6399 32,69.5C 31.0754,68.9535 30.2421,68.2868 29.5,67.5C 24.544,66.5059 19.544,66.1725 14.5,66.5C 15.0102,69.3878 14.3435,71.7211 12.5,73.5C 12.1771,67.31 12.5104,61.31 13.5,55.5C 13.5563,58.517 13.8897,58.8503 14.5,56.5C 62.1667,56.5 109.833,56.5 157.5,56.5C 157.351,55.448 157.517,54.448 158,53.5C 159,54.8333 160,56.1667 161,57.5C 161.464,56.9056 161.631,56.2389 161.5,55.5C 162.404,54.791 162.737,53.791 162.5,52.5C 163.5,52.5 164.5,52.5 165.5,52.5C 165.411,60.1259 166.911,60.4592 170,53.5C 170.333,57.1667 170.667,60.8333 171,64.5C 171.497,62.1902 171.663,59.8568 171.5,57.5 Z"/></g>
<g><path style="opacity:1" fill="#497fde" d="M 103.5,64.5 C 83.5201,63.3944 63.5201,63.2278 43.5,64C 42.5842,64.2784 41.9175,64.7784 41.5,65.5C 40.1667,66.1667 39.1667,67.1667 38.5,68.5C 38.1667,68.5 37.8333,68.5 37.5,68.5C 38.9264,65.7668 39.5931,63.1002 39.5,60.5C 41.2624,60.6427 42.9291,60.3094 44.5,59.5C 60.6656,61.2997 76.9989,62.133 93.5,62C 97.0899,62.3106 100.423,63.144 103.5,64.5 Z"/></g>
<g><path style="opacity:1" fill="#e9f7fc" d="M 103.5,64.5 C 103.5,65.1667 103.833,65.5 104.5,65.5C 104.539,66.5832 104.873,67.5832 105.5,68.5C 103.041,69.3263 100.541,69.993 98,70.5C 80.6726,70.7758 63.3393,70.4424 46,69.5C 41.0622,72.4011 39.5622,71.0678 41.5,65.5C 41.9175,64.7784 42.5842,64.2784 43.5,64C 63.5201,63.2278 83.5201,63.3944 103.5,64.5 Z"/></g>
<g><path style="opacity:1" fill="#467af5" d="M 39.5,60.5 C 39.5931,63.1002 38.9264,65.7668 37.5,68.5C 34.7329,70.2004 33.0663,72.2004 32.5,74.5C 30.4362,74.7619 29.1029,75.9286 28.5,78C 23.7909,79.4159 19.1243,79.9159 14.5,79.5C 13.8963,83.3027 13.2296,86.9694 12.5,90.5C 12.5,84.8333 12.5,79.1667 12.5,73.5C 14.3435,71.7211 15.0102,69.3878 14.5,66.5C 19.544,66.1725 24.544,66.5059 29.5,67.5C 30.2421,68.2868 31.0754,68.9535 32,69.5C 34.5541,66.6399 36.2207,63.3065 37,59.5C 38.159,58.434 38.9924,58.7673 39.5,60.5 Z"/></g>
<g><path style="opacity:1" fill="#447bf6" d="M 170.5,81.5 C 169.85,81.1961 169.183,80.8627 168.5,80.5C 167.851,78.3759 167.017,76.3759 166,74.5C 165.086,76.6641 163.919,78.6641 162.5,80.5C 160.146,75.5318 158.313,75.5318 157,80.5C 156.867,77.5862 155.7,75.2529 153.5,73.5C 152.818,74.2427 152.151,74.9094 151.5,75.5C 150.032,74.2209 149.365,72.5542 149.5,70.5C 150.635,68.7868 152.302,68.1201 154.5,68.5C 154.778,66.6536 154.111,65.3202 152.5,64.5C 148.699,68.4096 147.199,67.4096 148,61.5C 150.721,62.6611 153.054,61.9944 155,59.5C 155.914,61.6641 157.081,63.6641 158.5,65.5C 159.192,64.9747 159.692,64.3081 160,63.5C 161.08,65.5535 161.914,67.7202 162.5,70C 161.409,72.0639 161.242,74.2305 162,76.5C 163.661,73.8414 165.328,71.1748 167,68.5C 167.494,70.1341 167.66,71.8008 167.5,73.5C 168.5,73.5 169.5,73.5 170.5,73.5C 170.5,76.1667 170.5,78.8333 170.5,81.5 Z"/></g>
<g><path style="opacity:1" fill="#daf4fa" d="M 41.5,65.5 C 39.5622,71.0678 41.0622,72.4011 46,69.5C 63.3393,70.4424 80.6726,70.7758 98,70.5C 100.541,69.993 103.041,69.3263 105.5,68.5C 104.873,67.5832 104.539,66.5832 104.5,65.5C 108.754,67.6028 112.087,70.6028 114.5,74.5C 114.5,74.8333 114.5,75.1667 114.5,75.5C 114.802,78.0593 114.468,80.3926 113.5,82.5C 113.5,81.8333 113.5,81.1667 113.5,80.5C 113.005,78.5183 112.505,76.5183 112,74.5C 90.3023,75.3996 68.469,75.5663 46.5,75C 44.7756,74.5518 44.109,73.7185 44.5,72.5C 43.4763,73.8532 42.143,74.5198 40.5,74.5C 40.5,76.1667 40.5,77.8333 40.5,79.5C 39.8333,77.1667 39.1667,74.8333 38.5,72.5C 38.5,71.1667 38.5,69.8333 38.5,68.5C 39.1667,67.1667 40.1667,66.1667 41.5,65.5 Z"/></g>
<g><path style="opacity:1" fill="#d8f2fa" d="M 146.5,68.5 C 146.5,70.5 146.5,72.5 146.5,74.5C 144.656,76.2789 143.99,78.6122 144.5,81.5C 143.733,80.828 143.066,79.9947 142.5,79C 137.504,78.3893 132.504,77.8893 127.5,77.5C 127.5,76.8333 127.5,76.1667 127.5,75.5C 130.167,73.5 132.5,71.1667 134.5,68.5C 136.85,67.0059 139.35,65.6726 142,64.5C 143.98,65.3147 145.48,66.648 146.5,68.5 Z"/></g>
<g><path style="opacity:1" fill="#4270e4" d="M 134.5,68.5 C 132.5,71.1667 130.167,73.5 127.5,75.5C 124.806,77.5272 122.473,79.8605 120.5,82.5C 119.883,82.6107 119.383,82.944 119,83.5C 118.148,82.4293 117.315,81.4293 116.5,80.5C 116.5,79.8333 116.167,79.5 115.5,79.5C 115.768,77.901 115.434,76.5676 114.5,75.5C 114.5,75.1667 114.5,74.8333 114.5,74.5C 114.643,71.9026 115.477,69.5692 117,67.5C 119.115,70.2457 121.948,71.5791 125.5,71.5C 125.343,70.1266 125.51,68.7932 126,67.5C 126.333,68.1667 126.667,68.8333 127,69.5C 128.113,68.2889 129.28,68.2889 130.5,69.5C 131.386,68.675 131.719,67.675 131.5,66.5C 133.179,66.2852 134.179,66.9519 134.5,68.5 Z"/></g>
<g><path style="opacity:1" fill="#c5f0f7" d="M 113.5,80.5 C 112.883,80.6107 112.383,80.944 112,81.5C 111.751,80.376 111.251,79.376 110.5,78.5C 87.617,80.1644 64.617,81.1644 41.5,81.5C 40.7025,81.0431 40.3691,80.3764 40.5,79.5C 40.5,77.8333 40.5,76.1667 40.5,74.5C 42.143,74.5198 43.4763,73.8532 44.5,72.5C 44.109,73.7185 44.7756,74.5518 46.5,75C 68.469,75.5663 90.3023,75.3996 112,74.5C 112.505,76.5183 113.005,78.5183 113.5,80.5 Z"/></g>
<g><path style="opacity:1" fill="#486cf1" d="M 32.5,74.5 C 33.1295,77.9171 33.4629,81.4171 33.5,85C 33.4848,88.5758 32.8182,91.7425 31.5,94.5C 31.3178,89.2063 30.8178,89.2063 30,94.5C 29.6667,94.1667 29.3333,93.8333 29,93.5C 27.1083,97.1809 24.9416,97.3476 22.5,94C 22.8333,93.6667 23.1667,93.3333 23.5,93C 20.5184,92.502 17.5184,92.3354 14.5,92.5C 14.4681,97.3907 13.8015,102.057 12.5,106.5C 12.5,101.167 12.5,95.8333 12.5,90.5C 13.2296,86.9694 13.8963,83.3027 14.5,79.5C 19.1243,79.9159 23.7909,79.4159 28.5,78C 29.1029,75.9286 30.4362,74.7619 32.5,74.5 Z"/></g>
<g><path style="opacity:1" fill="#b1e9f4" d="M 38.5,72.5 C 39.1667,74.8333 39.8333,77.1667 40.5,79.5C 40.3691,80.3764 40.7025,81.0431 41.5,81.5C 64.617,81.1644 87.617,80.1644 110.5,78.5C 111.251,79.376 111.751,80.376 112,81.5C 112.383,80.944 112.883,80.6107 113.5,80.5C 113.5,81.1667 113.5,81.8333 113.5,82.5C 113.5,85.1667 113.5,87.8333 113.5,90.5C 112.833,90.5 112.167,90.5 111.5,90.5C 111.884,88.3352 111.217,86.6685 109.5,85.5C 87.8765,86.6553 66.2098,86.822 44.5,86C 43.7107,82.9031 42.544,82.7364 41,85.5C 40.5065,87.1341 40.3398,88.8008 40.5,90.5C 40.1667,90.5 39.8333,90.5 39.5,90.5C 38.8354,84.523 38.502,78.523 38.5,72.5 Z"/></g>
<g><path style="opacity:1" fill="#799dd2" d="M 37.5,68.5 C 37.8333,68.5 38.1667,68.5 38.5,68.5C 38.5,69.8333 38.5,71.1667 38.5,72.5C 38.502,78.523 38.8354,84.523 39.5,90.5C 39.5,93.8333 39.5,97.1667 39.5,100.5C 39.5,102.5 39.5,104.5 39.5,106.5C 38.8333,100.167 38.1667,93.8333 37.5,87.5C 37.5,81.1667 37.5,74.8333 37.5,68.5 Z"/></g>
<g><path style="opacity:1" fill="#aee9f3" d="M 127.5,77.5 C 132.504,77.8893 137.504,78.3893 142.5,79C 143.066,79.9947 143.733,80.828 144.5,81.5C 145.11,86.3167 144.777,88.3167 143.5,87.5C 141.284,87.2746 139.617,88.1079 138.5,90C 133.798,90.8283 129.131,90.6616 124.5,89.5C 123.626,87.2534 123.292,84.9201 123.5,82.5C 124.833,80.8333 126.167,79.1667 127.5,77.5 Z"/></g>
<g><path style="opacity:1" fill="#375bc6" d="M 147.5,68.5 C 148.167,69.1667 148.833,69.8333 149.5,70.5C 149.365,72.5542 150.032,74.2209 151.5,75.5C 151.782,80.9265 151.449,86.2599 150.5,91.5C 149.833,91.5 149.5,91.8333 149.5,92.5C 148.169,101.468 147.169,110.468 146.5,119.5C 146.907,102.502 147.241,85.5018 147.5,68.5 Z"/></g>
<g><path style="opacity:1" fill="#98e4f1" d="M 111.5,90.5 C 111.389,91.1174 111.056,91.6174 110.5,92C 89.1667,92.6667 67.8333,92.6667 46.5,92C 46,91.5 45.5,91 45,90.5C 43.8989,92.3939 42.5655,93.0606 41,92.5C 40.5357,91.9056 40.369,91.2389 40.5,90.5C 40.3398,88.8008 40.5065,87.1341 41,85.5C 42.544,82.7364 43.7107,82.9031 44.5,86C 66.2098,86.822 87.8765,86.6553 109.5,85.5C 111.217,86.6685 111.884,88.3352 111.5,90.5 Z"/></g>
<g><path style="opacity:1" fill="#8eb8e5" d="M 127.5,75.5 C 127.5,76.1667 127.5,76.8333 127.5,77.5C 126.167,79.1667 124.833,80.8333 123.5,82.5C 122.517,86.2984 122.183,90.2984 122.5,94.5C 122.5,96.5 122.5,98.5 122.5,100.5C 121.833,98.5 121.167,96.5 120.5,94.5C 120.5,90.5 120.5,86.5 120.5,82.5C 122.473,79.8605 124.806,77.5272 127.5,75.5 Z"/></g>
<g><path style="opacity:1" fill="#4c66ed" d="M 170.5,81.5 C 171.167,87.5 171.833,93.5 172.5,99.5C 172.5,110.5 172.5,121.5 172.5,132.5C 172.818,137.032 172.485,141.366 171.5,145.5C 171.783,130.471 171.283,115.471 170,100.5C 169.085,99.6721 168.419,98.6721 168,97.5C 167.667,98.1667 167.333,98.8333 167,99.5C 165.037,96.0536 163.704,96.0536 163,99.5C 161.901,96.9613 160.234,96.2946 158,97.5C 157.667,96.5 157.333,95.5 157,94.5C 156.743,96.295 156.077,98.295 155,100.5C 151.387,98.6069 149.887,95.6069 150.5,91.5C 151.449,86.2599 151.782,80.9265 151.5,75.5C 152.151,74.9094 152.818,74.2427 153.5,73.5C 155.7,75.2529 156.867,77.5862 157,80.5C 158.313,75.5318 160.146,75.5318 162.5,80.5C 163.919,78.6641 165.086,76.6641 166,74.5C 167.017,76.3759 167.851,78.3759 168.5,80.5C 169.183,80.8627 169.85,81.1961 170.5,81.5 Z"/></g>
<g><path style="opacity:1" fill="#4b5beb" d="M 31.5,94.5 C 32.1593,97.4082 32.9926,97.7416 34,95.5C 34.21,97.0581 34.71,98.3915 35.5,99.5C 35.3341,104.511 35.5007,109.511 36,114.5C 37.3961,117.064 38.5627,119.731 39.5,122.5C 37.0514,121.06 35.3847,119.06 34.5,116.5C 32.4987,113.167 30.4987,109.833 28.5,106.5C 27.5713,107.689 27.238,109.022 27.5,110.5C 23.143,111.576 18.8097,111.576 14.5,110.5C 13.7875,117.143 13.4542,123.809 13.5,130.5C 13.5,136.5 13.5,142.5 13.5,148.5C 12.5318,146.393 12.1984,144.059 12.5,141.5C 12.5,129.833 12.5,118.167 12.5,106.5C 13.8015,102.057 14.4681,97.3907 14.5,92.5C 17.5184,92.3354 20.5184,92.502 23.5,93C 23.1667,93.3333 22.8333,93.6667 22.5,94C 24.9416,97.3476 27.1083,97.1809 29,93.5C 29.3333,93.8333 29.6667,94.1667 30,94.5C 30.8178,89.2063 31.3178,89.2063 31.5,94.5 Z"/></g>
<g><path style="opacity:1" fill="#3958cb" d="M 37.5,68.5 C 37.5,74.8333 37.5,81.1667 37.5,87.5C 37.2953,95.8671 37.6287,104.2 38.5,112.5C 37.7321,111.737 37.2321,110.737 37,109.5C 36.6667,104.833 36.3333,100.167 36,95.5C 35.51,96.7932 35.3433,98.1266 35.5,99.5C 34.71,98.3915 34.21,97.0581 34,95.5C 32.9926,97.7416 32.1593,97.4082 31.5,94.5C 32.8182,91.7425 33.4848,88.5758 33.5,85C 33.4629,81.4171 33.1295,77.9171 32.5,74.5C 33.0663,72.2004 34.7329,70.2004 37.5,68.5 Z"/></g>
<g><path style="opacity:1" fill="#74daec" d="M 39.5,90.5 C 39.8333,90.5 40.1667,90.5 40.5,90.5C 40.369,91.2389 40.5357,91.9056 41,92.5C 42.5655,93.0606 43.8989,92.3939 45,90.5C 45.5,91 46,91.5 46.5,92C 67.8333,92.6667 89.1667,92.6667 110.5,92C 111.056,91.6174 111.389,91.1174 111.5,90.5C 112.167,90.5 112.833,90.5 113.5,90.5C 113.677,94.2343 113.344,97.9009 112.5,101.5C 111.833,102.833 111.167,104.167 110.5,105.5C 109.402,104.603 109.402,103.77 110.5,103C 109.667,102.833 108.833,102.667 108,102.5C 86.9894,103.822 65.9894,103.822 45,102.5C 42.2562,103.061 41.7562,104.394 43.5,106.5C 42.5,106.5 41.5,106.5 40.5,106.5C 40.7947,104.265 40.4614,102.265 39.5,100.5C 39.5,97.1667 39.5,93.8333 39.5,90.5 Z"/></g>
<g><path style="opacity:1" fill="#79dbed" d="M 146.5,74.5 C 146.565,81.5244 146.232,88.5244 145.5,95.5C 144.467,98.986 143.633,102.653 143,106.5C 142.781,105.062 142.281,103.729 141.5,102.5C 135.514,103.74 129.514,103.74 123.5,102.5C 123.806,99.6146 123.473,96.9479 122.5,94.5C 122.183,90.2984 122.517,86.2984 123.5,82.5C 123.292,84.9201 123.626,87.2534 124.5,89.5C 129.131,90.6616 133.798,90.8283 138.5,90C 139.617,88.1079 141.284,87.2746 143.5,87.5C 144.777,88.3167 145.11,86.3167 144.5,81.5C 143.99,78.6122 144.656,76.2789 146.5,74.5 Z"/></g>
<g><path style="opacity:1" fill="#4c7bb8" d="M 115.5,79.5 C 116.167,79.5 116.5,79.8333 116.5,80.5C 116.827,90.3478 116.494,100.014 115.5,109.5C 115.167,109.5 114.833,109.5 114.5,109.5C 114.553,99.4885 114.887,89.4885 115.5,79.5 Z"/></g>
<g><path style="opacity:1" fill="#263b9e" d="M 116.5,80.5 C 117.315,81.4293 118.148,82.4293 119,83.5C 119.383,82.944 119.883,82.6107 120.5,82.5C 120.5,86.5 120.5,90.5 120.5,94.5C 120.023,99.742 120.856,104.742 123,109.5C 128.167,114 133.333,118.5 138.5,123C 140.473,123.495 142.473,123.662 144.5,123.5C 143.688,124.993 142.355,125.66 140.5,125.5C 133.421,124.391 128.421,120.724 125.5,114.5C 123.019,114.677 121.186,113.677 120,111.5C 118.083,113.972 116.583,116.639 115.5,119.5C 115.5,116.167 115.5,112.833 115.5,109.5C 116.494,100.014 116.827,90.3478 116.5,80.5 Z"/></g>
<g><path style="opacity:1" fill="#4d53e7" d="M 150.5,91.5 C 149.887,95.6069 151.387,98.6069 155,100.5C 156.077,98.295 156.743,96.295 157,94.5C 157.333,95.5 157.667,96.5 158,97.5C 160.234,96.2946 161.901,96.9613 163,99.5C 163.704,96.0536 165.037,96.0536 167,99.5C 167.333,98.8333 167.667,98.1667 168,97.5C 168.419,98.6721 169.085,99.6721 170,100.5C 171.283,115.471 171.783,130.471 171.5,145.5C 170.885,153.061 167.885,159.394 162.5,164.5C 162.675,162.379 162.341,160.379 161.5,158.5C 163.042,157.699 164.708,157.366 166.5,157.5C 166.5,156.5 166.5,155.5 166.5,154.5C 168.256,153.448 168.923,151.781 168.5,149.5C 169.222,149.082 169.722,148.416 170,147.5C 170.5,139.507 170.666,131.507 170.5,123.5C 171.045,120.002 170.212,117.002 168,114.5C 167.692,115.308 167.192,115.975 166.5,116.5C 164.51,115.127 162.343,114.127 160,113.5C 159.692,114.308 159.192,114.975 158.5,115.5C 157.186,114.687 156.019,113.687 155,112.5C 153.801,115.726 153.301,119.059 153.5,122.5C 152.167,123.167 150.833,123.833 149.5,124.5C 149.5,121.833 149.5,119.167 149.5,116.5C 149.5,108.5 149.5,100.5 149.5,92.5C 149.5,91.8333 149.833,91.5 150.5,91.5 Z"/></g>
<g><path style="opacity:1" fill="#3b74b7" d="M 146.5,68.5 C 146.833,68.5 147.167,68.5 147.5,68.5C 147.241,85.5018 146.907,102.502 146.5,119.5C 146.267,121.062 145.6,122.395 144.5,123.5C 142.473,123.662 140.473,123.495 138.5,123C 133.333,118.5 128.167,114 123,109.5C 120.856,104.742 120.023,99.742 120.5,94.5C 121.167,96.5 121.833,98.5 122.5,100.5C 122.249,104.331 123.416,107.664 126,110.5C 130.764,115.106 135.93,119.106 141.5,122.5C 142.442,122.392 143.275,122.059 144,121.5C 144.583,112.834 145.083,104.167 145.5,95.5C 146.232,88.5244 146.565,81.5244 146.5,74.5C 146.5,72.5 146.5,70.5 146.5,68.5 Z"/></g>
<g><path style="opacity:1" fill="#48cbe6" d="M 122.5,94.5 C 123.473,96.9479 123.806,99.6146 123.5,102.5C 129.514,103.74 135.514,103.74 141.5,102.5C 142.281,103.729 142.781,105.062 143,106.5C 143.633,102.653 144.467,98.986 145.5,95.5C 145.083,104.167 144.583,112.834 144,121.5C 143.275,122.059 142.442,122.392 141.5,122.5C 135.93,119.106 130.764,115.106 126,110.5C 123.416,107.664 122.249,104.331 122.5,100.5C 122.5,98.5 122.5,96.5 122.5,94.5 Z"/></g>
<g><path style="opacity:1" fill="#40b1de" d="M 114.5,75.5 C 115.434,76.5676 115.768,77.901 115.5,79.5C 114.887,89.4885 114.553,99.4885 114.5,109.5C 115.161,114.284 114.161,118.618 111.5,122.5C 91.8418,123.666 72.1751,123.833 52.5,123C 51.5842,122.722 50.9175,122.222 50.5,121.5C 70.5111,121.833 90.5111,121.5 110.5,120.5C 111,119.5 111.5,118.5 112,117.5C 112.499,112.177 112.666,106.844 112.5,101.5C 113.344,97.9009 113.677,94.2343 113.5,90.5C 113.5,87.8333 113.5,85.1667 113.5,82.5C 114.468,80.3926 114.802,78.0593 114.5,75.5 Z"/></g>
<g><path style="opacity:1" fill="#4f4aee" d="M 34.5,116.5 C 34.2525,118.858 34.9192,120.858 36.5,122.5C 36.7248,127.623 39.3915,130.623 44.5,131.5C 45.2975,131.957 45.6309,132.624 45.5,133.5C 43.4658,131.754 41.2991,131.42 39,132.5C 37.8333,130.833 36.6667,129.167 35.5,127.5C 33.5675,128.52 31.5675,128.687 29.5,128C 29.8333,127.667 30.1667,127.333 30.5,127C 25.1771,126.501 19.8437,126.334 14.5,126.5C 14.7678,128.099 14.4345,129.432 13.5,130.5C 13.4542,123.809 13.7875,117.143 14.5,110.5C 18.8097,111.576 23.143,111.576 27.5,110.5C 27.238,109.022 27.5713,107.689 28.5,106.5C 30.4987,109.833 32.4987,113.167 34.5,116.5 Z"/></g>
<g><path style="opacity:1" fill="#195aa7" d="M 37.5,87.5 C 38.1667,93.8333 38.8333,100.167 39.5,106.5C 39.9246,110.607 41.4246,114.274 44,117.5C 45.6379,119.734 47.8045,121.067 50.5,121.5C 50.9175,122.222 51.5842,122.722 52.5,123C 72.1751,123.833 91.8418,123.666 111.5,122.5C 114.161,118.618 115.161,114.284 114.5,109.5C 114.833,109.5 115.167,109.5 115.5,109.5C 115.5,112.833 115.5,116.167 115.5,119.5C 115.5,120.167 115.5,120.833 115.5,121.5C 114.373,122.122 113.373,122.955 112.5,124C 91.8333,124.667 71.1667,124.667 50.5,124C 45.0697,121.621 41.0697,117.787 38.5,112.5C 37.6287,104.2 37.2953,95.8671 37.5,87.5 Z"/></g>
<g><path style="opacity:1" fill="#3437b5" d="M 149.5,92.5 C 149.5,100.5 149.5,108.5 149.5,116.5C 148.333,125.244 143.333,128.744 134.5,127C 131.163,122.653 126.996,119.486 122,117.5C 118.849,122.147 115.349,126.481 111.5,130.5C 91.5111,131.5 71.5111,131.833 51.5,131.5C 51.719,130.325 51.3857,129.325 50.5,128.5C 45.5299,128.649 41.8632,126.649 39.5,122.5C 38.5627,119.731 37.3961,117.064 36,114.5C 35.5007,109.511 35.3341,104.511 35.5,99.5C 35.3433,98.1266 35.51,96.7932 36,95.5C 36.3333,100.167 36.6667,104.833 37,109.5C 37.2321,110.737 37.7321,111.737 38.5,112.5C 39.5434,116.067 40.8768,119.567 42.5,123C 47.5583,124.871 52.5583,126.704 57.5,128.5C 74.8192,127.722 92.1526,127.222 109.5,127C 112.641,126.285 114.641,124.452 115.5,121.5C 115.5,120.833 115.5,120.167 115.5,119.5C 116.583,116.639 118.083,113.972 120,111.5C 121.186,113.677 123.019,114.677 125.5,114.5C 128.421,120.724 133.421,124.391 140.5,125.5C 142.355,125.66 143.688,124.993 144.5,123.5C 145.6,122.395 146.267,121.062 146.5,119.5C 147.169,110.468 148.169,101.468 149.5,92.5 Z"/></g>
<g><path style="opacity:1" fill="#202c90" d="M 38.5,112.5 C 41.0697,117.787 45.0697,121.621 50.5,124C 71.1667,124.667 91.8333,124.667 112.5,124C 113.373,122.955 114.373,122.122 115.5,121.5C 114.641,124.452 112.641,126.285 109.5,127C 92.1526,127.222 74.8192,127.722 57.5,128.5C 52.5583,126.704 47.5583,124.871 42.5,123C 40.8768,119.567 39.5434,116.067 38.5,112.5 Z"/></g>
<g><path style="opacity:1" fill="#2dc7e3" d="M 39.5,100.5 C 40.4614,102.265 40.7947,104.265 40.5,106.5C 41.5,106.5 42.5,106.5 43.5,106.5C 44.9418,107.82 45.6085,109.486 45.5,111.5C 48.5248,111.877 51.5248,112.044 54.5,112C 54.0426,111.586 53.7093,111.086 53.5,110.5C 54.8333,110.167 56.1667,109.833 57.5,109.5C 73.4306,111.542 89.4306,112.042 105.5,111C 108.113,109.893 109.78,108.06 110.5,105.5C 111.167,104.167 111.833,102.833 112.5,101.5C 112.666,106.844 112.499,112.177 112,117.5C 111.5,118.5 111,119.5 110.5,120.5C 90.5111,121.5 70.5111,121.833 50.5,121.5C 47.8045,121.067 45.6379,119.734 44,117.5C 41.4246,114.274 39.9246,110.607 39.5,106.5C 39.5,104.5 39.5,102.5 39.5,100.5 Z"/></g>
<g><path style="opacity:1" fill="#50d2e7" d="M 110.5,105.5 C 109.78,108.06 108.113,109.893 105.5,111C 89.4306,112.042 73.4306,111.542 57.5,109.5C 56.1667,109.833 54.8333,110.167 53.5,110.5C 53.7093,111.086 54.0426,111.586 54.5,112C 51.5248,112.044 48.5248,111.877 45.5,111.5C 45.6085,109.486 44.9418,107.82 43.5,106.5C 41.7562,104.394 42.2562,103.061 45,102.5C 65.9894,103.822 86.9894,103.822 108,102.5C 108.833,102.667 109.667,102.833 110.5,103C 109.402,103.77 109.402,104.603 110.5,105.5 Z"/></g>
<g><path style="opacity:1" fill="#4139c9" d="M 34.5,116.5 C 35.3847,119.06 37.0514,121.06 39.5,122.5C 41.8632,126.649 45.5299,128.649 50.5,128.5C 51.3857,129.325 51.719,130.325 51.5,131.5C 71.5111,131.833 91.5111,131.5 111.5,130.5C 115.349,126.481 118.849,122.147 122,117.5C 126.996,119.486 131.163,122.653 134.5,127C 143.333,128.744 148.333,125.244 149.5,116.5C 149.5,119.167 149.5,121.833 149.5,124.5C 147.156,127.9 143.823,129.233 139.5,128.5C 135.937,128.968 132.937,127.968 130.5,125.5C 127.316,123.89 123.983,122.89 120.5,122.5C 118.778,126.395 116.111,129.562 112.5,132C 91.8321,133.982 71.1655,133.982 50.5,132C 44.8556,130.031 40.1889,126.864 36.5,122.5C 34.9192,120.858 34.2525,118.858 34.5,116.5 Z"/></g>
<g><path style="opacity:1" fill="#463ad6" d="M 36.5,122.5 C 40.1889,126.864 44.8556,130.031 50.5,132C 71.1655,133.982 91.8321,133.982 112.5,132C 116.111,129.562 118.778,126.395 120.5,122.5C 123.983,122.89 127.316,123.89 130.5,125.5C 132.937,127.968 135.937,128.968 139.5,128.5C 143.823,129.233 147.156,127.9 149.5,124.5C 150.833,123.833 152.167,123.167 153.5,122.5C 151.401,125.041 150.068,128.041 149.5,131.5C 145.29,133.577 141.123,134.91 137,135.5C 132.601,133.057 128.268,130.723 124,128.5C 122.634,128.706 121.301,129.04 120,129.5C 115.482,134.593 109.815,137.593 103,138.5C 89.1386,137.86 74.9719,137.194 60.5,136.5C 58.941,137.447 57.2743,138.113 55.5,138.5C 51.6817,137.576 48.3484,135.909 45.5,133.5C 45.6309,132.624 45.2975,131.957 44.5,131.5C 39.3915,130.623 36.7248,127.623 36.5,122.5 Z"/></g>
<g><path style="opacity:1" fill="#503ee7" d="M 170.5,123.5 C 169.542,123.047 168.708,122.381 168,121.5C 167.774,124.095 167.274,126.595 166.5,129C 163.682,129.84 161.516,129.006 160,126.5C 158.991,129.507 158.491,132.507 158.5,135.5C 157.07,135.579 155.736,135.246 154.5,134.5C 150.5,135.833 146.5,137.167 142.5,138.5C 139.523,136.297 136.356,135.963 133,137.5C 131,136.167 129,134.833 127,133.5C 126.581,134.672 125.915,135.672 125,136.5C 119.472,134.734 114.472,135.734 110,139.5C 108.602,138.949 107.268,138.616 106,138.5C 86.9148,140.973 67.7482,141.14 48.5,139C 43.8741,137.798 39.0408,136.298 34,134.5C 27.5234,135.298 21.0234,135.632 14.5,135.5C 14.5,138.5 14.5,141.5 14.5,144.5C 14.9578,148.538 15.6245,152.538 16.5,156.5C 14.7329,154.208 13.7329,151.542 13.5,148.5C 13.5,142.5 13.5,136.5 13.5,130.5C 14.4345,129.432 14.7678,128.099 14.5,126.5C 19.8437,126.334 25.1771,126.501 30.5,127C 30.1667,127.333 29.8333,127.667 29.5,128C 31.5675,128.687 33.5675,128.52 35.5,127.5C 36.6667,129.167 37.8333,130.833 39,132.5C 41.2991,131.42 43.4658,131.754 45.5,133.5C 48.3484,135.909 51.6817,137.576 55.5,138.5C 57.2743,138.113 58.941,137.447 60.5,136.5C 74.9719,137.194 89.1386,137.86 103,138.5C 109.815,137.593 115.482,134.593 120,129.5C 121.301,129.04 122.634,128.706 124,128.5C 128.268,130.723 132.601,133.057 137,135.5C 141.123,134.91 145.29,133.577 149.5,131.5C 150.068,128.041 151.401,125.041 153.5,122.5C 153.301,119.059 153.801,115.726 155,112.5C 156.019,113.687 157.186,114.687 158.5,115.5C 159.192,114.975 159.692,114.308 160,113.5C 162.343,114.127 164.51,115.127 166.5,116.5C 167.192,115.975 167.692,115.308 168,114.5C 170.212,117.002 171.045,120.002 170.5,123.5 Z"/></g>
<g><path style="opacity:1" fill="#533aeb" d="M 170.5,123.5 C 170.666,131.507 170.5,139.507 170,147.5C 169.722,148.416 169.222,149.082 168.5,149.5C 168.244,147.208 168.577,145.041 169.5,143C 168.135,141.318 166.635,141.151 165,142.5C 164.417,140.998 163.584,139.665 162.5,138.5C 161.397,140.104 159.897,141.104 158,141.5C 149.953,140.558 141.953,139.558 134,138.5C 129.559,141.387 125.559,140.721 122,136.5C 120.615,137.551 119.615,138.884 119,140.5C 118.692,139.692 118.192,139.025 117.5,138.5C 114.043,139.886 110.543,141.219 107,142.5C 92.3333,142.5 77.6667,142.5 63,142.5C 62.2496,141.874 61.4162,141.374 60.5,141C 51.3967,139.62 42.3967,139.787 33.5,141.5C 30.5701,141.846 28.2368,140.846 26.5,138.5C 25.6143,139.325 25.281,140.325 25.5,141.5C 23.8333,141.5 22.1667,141.5 20.5,141.5C 20.5,140.5 20.5,139.5 20.5,138.5C 19.1266,138.343 17.7932,138.51 16.5,139C 17.4061,140.699 17.7394,142.533 17.5,144.5C 16.5,144.5 15.5,144.5 14.5,144.5C 14.5,141.5 14.5,138.5 14.5,135.5C 21.0234,135.632 27.5234,135.298 34,134.5C 39.0408,136.298 43.8741,137.798 48.5,139C 67.7482,141.14 86.9148,140.973 106,138.5C 107.268,138.616 108.602,138.949 110,139.5C 114.472,135.734 119.472,134.734 125,136.5C 125.915,135.672 126.581,134.672 127,133.5C 129,134.833 131,136.167 133,137.5C 136.356,135.963 139.523,136.297 142.5,138.5C 146.5,137.167 150.5,135.833 154.5,134.5C 155.736,135.246 157.07,135.579 158.5,135.5C 158.491,132.507 158.991,129.507 160,126.5C 161.516,129.006 163.682,129.84 166.5,129C 167.274,126.595 167.774,124.095 168,121.5C 168.708,122.381 169.542,123.047 170.5,123.5 Z"/></g>
<g><path style="opacity:1" fill="#5635ed" d="M 168.5,149.5 C 168.923,151.781 168.256,153.448 166.5,154.5C 167.138,152.54 167.138,150.707 166.5,149C 164.251,148.137 162.418,148.637 161,150.5C 159.615,149.449 158.615,148.116 158,146.5C 151.238,147.814 144.238,148.48 137,148.5C 99.4238,148.341 61.5905,148.341 23.5,148.5C 23.5,150.5 23.5,152.5 23.5,154.5C 22.3449,154.578 21.0116,154.912 19.5,155.5C 19.3093,157.804 19.6427,160.138 20.5,162.5C 18.684,160.882 17.3507,158.882 16.5,156.5C 15.6245,152.538 14.9578,148.538 14.5,144.5C 15.5,144.5 16.5,144.5 17.5,144.5C 17.7394,142.533 17.4061,140.699 16.5,139C 17.7932,138.51 19.1266,138.343 20.5,138.5C 20.5,139.5 20.5,140.5 20.5,141.5C 22.1667,141.5 23.8333,141.5 25.5,141.5C 25.281,140.325 25.6143,139.325 26.5,138.5C 28.2368,140.846 30.5701,141.846 33.5,141.5C 42.3967,139.787 51.3967,139.62 60.5,141C 61.4162,141.374 62.2496,141.874 63,142.5C 77.6667,142.5 92.3333,142.5 107,142.5C 110.543,141.219 114.043,139.886 117.5,138.5C 118.192,139.025 118.692,139.692 119,140.5C 119.615,138.884 120.615,137.551 122,136.5C 125.559,140.721 129.559,141.387 134,138.5C 141.953,139.558 149.953,140.558 158,141.5C 159.897,141.104 161.397,140.104 162.5,138.5C 163.584,139.665 164.417,140.998 165,142.5C 166.635,141.151 168.135,141.318 169.5,143C 168.577,145.041 168.244,147.208 168.5,149.5 Z"/></g>
<g><path style="opacity:1" fill="#582eee" d="M 166.5,154.5 C 166.5,155.5 166.5,156.5 166.5,157.5C 164.708,157.366 163.042,157.699 161.5,158.5C 160.034,157.653 159.2,156.32 159,154.5C 113.762,154.528 68.5956,154.528 23.5,154.5C 23.5,152.5 23.5,150.5 23.5,148.5C 61.5905,148.341 99.4238,148.341 137,148.5C 144.238,148.48 151.238,147.814 158,146.5C 158.615,148.116 159.615,149.449 161,150.5C 162.418,148.637 164.251,148.137 166.5,149C 167.138,150.707 167.138,152.54 166.5,154.5 Z"/></g>
<g><path style="opacity:1" fill="#5a28eb" d="M 161.5,158.5 C 162.341,160.379 162.675,162.379 162.5,164.5C 159.564,165.406 156.564,166.072 153.5,166.5C 153.5,167.833 153.5,169.167 153.5,170.5C 151.139,170.674 148.806,171.007 146.5,171.5C 145.2,170.399 144.7,169.066 145,167.5C 147.386,166.237 149.219,164.403 150.5,162C 152.74,161.023 155.073,160.523 157.5,160.5C 157.281,161.675 157.614,162.675 158.5,163.5C 160.54,159.024 159.04,156.69 154,156.5C 150.315,158.25 146.815,160.25 143.5,162.5C 126.651,161.195 109.651,160.528 92.5,160.5C 71.2147,160.576 51.3814,160.91 33,161.5C 30.905,159.95 28.7383,159.617 26.5,160.5C 27.3482,162.409 27.6816,164.409 27.5,166.5C 28.5,166.5 29.5,166.5 30.5,166.5C 30.5,167.5 30.5,168.5 30.5,169.5C 32.6188,169.468 33.9522,170.468 34.5,172.5C 28.7682,170.636 24.1015,167.303 20.5,162.5C 19.6427,160.138 19.3093,157.804 19.5,155.5C 21.0116,154.912 22.3449,154.578 23.5,154.5C 68.5956,154.528 113.762,154.528 159,154.5C 159.2,156.32 160.034,157.653 161.5,158.5 Z"/></g>
<g><path style="opacity:1" fill="#5b22ec" d="M 143.5,162.5 C 142.878,163.627 142.045,164.627 141,165.5C 110,165.167 79,164.833 48,164.5C 45.0653,166.983 42.0653,166.983 39,164.5C 37.3943,166.984 35.8943,166.984 34.5,164.5C 33.5105,166.588 33.8439,168.588 35.5,170.5C 37.2844,171.606 39.1178,171.606 41,170.5C 42.6833,171.176 42.8499,172.176 41.5,173.5C 39.5648,172.85 37.5648,172.517 35.5,172.5C 35.1667,172.5 34.8333,172.5 34.5,172.5C 33.9522,170.468 32.6188,169.468 30.5,169.5C 30.5,168.5 30.5,167.5 30.5,166.5C 29.5,166.5 28.5,166.5 27.5,166.5C 27.6816,164.409 27.3482,162.409 26.5,160.5C 28.7383,159.617 30.905,159.95 33,161.5C 51.3814,160.91 71.2147,160.576 92.5,160.5C 109.651,160.528 126.651,161.195 143.5,162.5 Z"/></g>
<g><path style="opacity:1" fill="#7648da" d="M 162.5,164.5 C 160.049,167.277 157.049,169.277 153.5,170.5C 153.5,169.167 153.5,167.833 153.5,166.5C 156.564,166.072 159.564,165.406 162.5,164.5 Z"/></g>
<g><path style="opacity:1" fill="#5d1cec" d="M 146.5,171.5 C 145.711,171.783 145.044,172.283 144.5,173C 110.168,173.5 75.835,173.667 41.5,173.5C 42.8499,172.176 42.6833,171.176 41,170.5C 39.1178,171.606 37.2844,171.606 35.5,170.5C 33.8439,168.588 33.5105,166.588 34.5,164.5C 35.8943,166.984 37.3943,166.984 39,164.5C 42.0653,166.983 45.0653,166.983 48,164.5C 79,164.833 110,165.167 141,165.5C 142.045,164.627 142.878,163.627 143.5,162.5C 146.815,160.25 150.315,158.25 154,156.5C 159.04,156.69 160.54,159.024 158.5,163.5C 157.614,162.675 157.281,161.675 157.5,160.5C 155.073,160.523 152.74,161.023 150.5,162C 149.219,164.403 147.386,166.237 145,167.5C 144.7,169.066 145.2,170.399 146.5,171.5 Z"/></g>
<g><path style="opacity:1" fill="#7447d2" d="M 153.5,170.5 C 149.576,172.865 145.243,174.365 140.5,175C 108.167,175.667 75.8333,175.667 43.5,175C 40.5432,174.721 37.8766,173.887 35.5,172.5C 37.5648,172.517 39.5648,172.85 41.5,173.5C 75.835,173.667 110.168,173.5 144.5,173C 145.044,172.283 145.711,171.783 146.5,171.5C 148.806,171.007 151.139,170.674 153.5,170.5 Z"/></g>
</svg>
